<svg xmlns="http://www.w3.org/2000/svg" width="20" height="20" fill="none"><g clip-path="url(#a)"><path fill="#FFCF7A" d="M19.414 0h-5a.586.586 0 0 0-.586.585V2.93c0 .324.262.586.586.586h.742V11.367a5.129 5.129 0 0 1-3.76 4.934 5.278 5.278 0 0 1-3.662-.328 5.115 5.115 0 0 1-2.89-4.607V3.516h.742a.586.586 0 0 0 .586-.586V.585A.586.586 0 0 0 5.586 0h-5A.586.586 0 0 0 0 .585V2.93c0 .324.262.586.586.586h.742v7.852c0 2.237.89 4.417 2.451 6.02a8.674 8.674 0 0 0 5.971 2.61c2.255.054 4.458-.743 6.123-2.273a8.677 8.677 0 0 0 2.799-6.357V3.515h.742A.586.586 0 0 0 20 2.93V.585A.586.586 0 0 0 19.414 0ZM1.172 1.17H5v1.172H1.172V1.171Zm2.5 2.344v1.172H2.5V3.515h1.172Zm13.836 7.852c-.044.76-.15 1.51-.375 2.244a7.415 7.415 0 0 1-2.57 3.69c-2.046 1.563-4.889 1.955-7.287 1.027a7.542 7.542 0 0 1-4.396-4.61 7.457 7.457 0 0 1-.38-2.351V5.859h1.172v5.508a6.347 6.347 0 0 0 3.172 5.46c2.108 1.209 4.87 1.09 6.847-.337a6.326 6.326 0 0 0 2.287-3.138c.782-2.386.104-4.993.371-7.49l1.168-.001c-.157 1.823.094 3.692-.01 5.506Zm-.008-6.68h-1.172V3.515H17.5v1.172Zm1.328-2.344H15V1.171h3.828v1.172Z"/></g><defs><clipPath id="a"><path fill="#fff" d="M0 0h20v20H0z"/></clipPath></defs></svg>