<svg xmlns="http://www.w3.org/2000/svg" width="18" height="18" fill="none"><g clip-path="url(#a)"><path fill="#000" d="M15.51 12.528c-1.088-.93-2.192-1.494-3.266-.565l-.641.561c-.47.408-1.342 2.311-4.715-1.569-3.372-3.875-1.365-4.479-.896-4.883l.645-.562c1.069-.93.666-2.102-.105-3.308l-.465-.73C5.293.267 4.45-.523 3.379.406l-.58.506c-.473.345-1.796 1.466-2.117 3.596-.386 2.555.832 5.482 3.625 8.692 2.788 3.213 5.519 4.826 8.105 4.798 2.15-.023 3.448-1.176 3.854-1.596l.58-.506c1.069-.929.405-1.874-.683-2.806l-.654-.563Z"/></g><defs><clipPath id="a"><path fill="#fff" d="M0 0h18v18H0z"/></clipPath></defs></svg>