<svg xmlns="http://www.w3.org/2000/svg" width="20" height="20" fill="none"><g fill="#FFCF7A" clip-path="url(#a)"><path d="M8.889 0h2.222v11.11H8.89V0Z"/><path d="m15 1.338-1.112 1.924a7.808 7.808 0 0 1 3.89 6.737c0 4.29-3.49 7.778-7.778 7.778-4.289 0-7.778-3.489-7.778-7.778 0-2.768 1.49-5.35 3.89-6.737L4.999 1.338A10.037 10.037 0 0 0 0 9.999c0 5.514 4.486 10 10 10s10-4.486 10-10c0-3.558-1.916-6.877-5-8.661Z"/></g><defs><clipPath id="a"><path fill="#fff" d="M0 0h20v20H0z"/></clipPath></defs></svg>