<svg aria-hidden="true" style="position: absolute; width: 0; height: 0; overflow: hidden;" version="1.1" xmlns="http://www.w3.org/2000/svg" xmlns:xlink="http://www.w3.org/1999/xlink">
<defs>
<symbol id="icon-close" viewBox="0 0 32 32">
<path fill="#fff" style="fill: var(--color1, #fff)" d="M32 1.886l-1.886-1.886-14.114 14.114-14.114-14.114-1.886 1.886 14.114 14.114-14.114 14.114 1.886 1.886 14.114-14.114 14.114 14.114 1.886-1.886-14.114-14.114 14.114-14.114z"></path>
</symbol>
<symbol id="icon-fire" viewBox="0 0 32 32">
<path fill="#fff" style="fill: var(--color1, #fff)" d="M26.84 13.967l-0.431-0.809-0.819 0.413c-0.626 0.316-1.302 0.473-2.008 0.47-2.417-0.014-4.383-2.021-4.383-4.473v-1.576c0-2.557-0.876-5.066-2.465-7.068l-0.734-0.924-9.413 11.85c-1.74 2.071-2.813 4.754-2.859 7.686l-0 0.010c-0.048 3.281 1.211 6.394 3.546 8.767 2.333 2.372 5.424 3.681 8.703 3.687h0.023c3.274 0 6.353-1.273 8.671-3.587 2.225-2.21 3.603-5.27 3.603-8.653 0-0.012-0-0.024-0-0.035v0.002c0-2.006-0.496-3.998-1.434-5.759zM19.327 24.925c0.181 0 0.364-0.013 0.543-0.042 0.118 0.383 0.178 0.782 0.178 1.193 0 1.083-0.422 2.101-1.188 2.866-0.728 0.731-1.736 1.183-2.849 1.183-0.004 0-0.008 0-0.012-0h-0.007c-1.125-0.003-2.141-0.469-2.867-1.217l-0.001-0.001c-0.725-0.726-1.173-1.729-1.173-2.836 0-0.019 0-0.038 0-0.057l-0 0.003c0.015-0.972 0.37-1.858 0.951-2.547l-0.005 0.006 2.966-3.733c0.128 0.376 0.195 0.772 0.195 1.173v0.693c0 1.818 1.466 3.306 3.27 3.317zM23.347 27.086c-0.59 0.59-1.25 1.11-1.966 1.546l-0.046 0.026c0.372-0.754 0.59-1.641 0.59-2.579 0-1.018-0.256-1.977-0.708-2.814l0.016 0.032-0.431-0.809-0.818 0.413c-0.184 0.095-0.402 0.15-0.632 0.15-0.004 0-0.008-0-0.012-0h0.001c-0.775-0.004-1.405-0.651-1.405-1.442v-0.694c-0.002-1.303-0.453-2.5-1.207-3.446l0.009 0.011-0.734-0.925-4.547 5.725c-0.837 0.999-1.353 2.291-1.375 3.704l-0 0.005c-0.014 0.925 0.189 1.823 0.583 2.637-0.777-0.478-1.449-1.017-2.048-1.626l-0.002-0.002c-1.98-2.013-3.049-4.65-3.009-7.425 0.035-2.384 0.897-4.703 2.429-6.528l0.008-0.010 7.912-9.96c0.86 1.402 1.371 3.099 1.373 4.915v1.576c0 3.48 2.802 6.328 6.247 6.348 0.011 0 0.025 0 0.038 0 0.694 0 1.361-0.113 1.985-0.32l-0.044 0.013c0.557 1.293 0.849 2.701 0.849 4.118 0 0.008 0 0.018 0 0.029 0 2.866-1.167 5.459-3.052 7.331l-0.001 0.001z"></path>
</symbol>
<symbol id="icon-gear" viewBox="0 0 32 32">
<path fill="#fff" style="fill: var(--color1, #fff)" d="M31.286 13.215l-3.667-0.902c-0.25-0.78-0.537-1.447-0.879-2.080l0.032 0.064 1.709-2.848c0.084-0.138 0.133-0.304 0.133-0.482 0-0.259-0.105-0.493-0.274-0.663v0l-2.652-2.652c-0.17-0.17-0.404-0.275-0.663-0.275-0.178 0-0.345 0.050-0.487 0.136l0.004-0.002-2.851 1.71c-0.565-0.307-1.227-0.592-1.917-0.816l-0.086-0.024-0.903-3.666c-0.104-0.413-0.472-0.714-0.91-0.715h-3.75c-0.438 0-0.806 0.301-0.908 0.707l-0.001 0.006-0.903 3.667c-0.736 0.234-1.446 0.537-2.125 0.906l-2.958-1.777c-0.138-0.084-0.304-0.133-0.482-0.133-0.259 0-0.494 0.105-0.664 0.275v0l-2.652 2.653c-0.169 0.17-0.274 0.404-0.274 0.663 0 0.178 0.050 0.344 0.136 0.486l-0.002-0.004c0.012 0.021 1.111 1.853 1.829 3.055-0.263 0.504-0.513 1.101-0.715 1.721l-0.024 0.086c-1.25 0.311-3.638 0.897-3.666 0.905-0.413 0.104-0.714 0.472-0.715 0.91v3.75c0 0.432 0.295 0.807 0.715 0.91 0.028 0.007 2.399 0.589 3.667 0.902 0.224 0.706 0.512 1.392 0.863 2.049l-1.637 2.729c-0.084 0.138-0.134 0.304-0.134 0.483 0 0.259 0.105 0.493 0.275 0.663l2.652 2.652c0.17 0.17 0.404 0.275 0.663 0.275 0.178 0 0.345-0.050 0.487-0.136l-0.004 0.002 2.734-1.639c0.651 0.347 1.332 0.634 2.034 0.855l0.901 3.667c0.102 0.419 0.479 0.714 0.91 0.714h3.75c0.438-0 0.806-0.301 0.908-0.707l0.001-0.006 0.902-3.667c0.802-0.257 1.489-0.556 2.14-0.914l-0.062 0.031 2.778 1.667c0.138 0.084 0.304 0.134 0.483 0.134 0.259 0 0.493-0.105 0.663-0.275l2.652-2.652c0.17-0.17 0.275-0.404 0.275-0.663 0-0.178-0.050-0.345-0.136-0.487l0.002 0.004-1.685-2.807c0.333-0.63 0.608-1.291 0.823-1.97 1.114-0.275 3.637-0.895 3.667-0.902 0.413-0.104 0.713-0.472 0.714-0.91v-3.75c-0-0.438-0.301-0.806-0.707-0.908l-0.006-0.001zM30.125 17.14c-1.083 0.267-3.045 0.749-3.42 0.843l-0.070 0.017c-0.327 0.087-0.58 0.339-0.668 0.659l-0.002 0.007c-0.261 0.963-0.623 1.805-1.085 2.581l0.026-0.047c-0.081 0.136-0.129 0.3-0.129 0.475 0 0.178 0.050 0.344 0.136 0.486l-0.002-0.004 1.587 2.645-1.617 1.617-2.621-1.573c-0.138-0.084-0.304-0.134-0.483-0.134-0.18 0-0.348 0.051-0.49 0.138l0.004-0.002c-0.754 0.465-1.626 0.846-2.551 1.099l-0.071 0.016c-0.324 0.088-0.575 0.338-0.662 0.656l-0.002 0.007c-0.051 0.192-0.102 0.397-0.103 0.4l-0.762 3.099h-2.282l-0.675-2.752-0.182-0.73c-0.085-0.331-0.338-0.588-0.661-0.677l-0.007-0.002c-0.984-0.267-1.845-0.639-2.637-1.116l0.046 0.026c-0.137-0.082-0.302-0.131-0.478-0.131s-0.34 0.048-0.481 0.132l0.004-0.002c-0.203 0.119-1.703 1.020-2.581 1.546l-1.616-1.617 1.541-2.569c0.084-0.138 0.133-0.304 0.133-0.482s-0.049-0.343-0.135-0.484l0.002 0.004c-0.455-0.749-0.83-1.614-1.079-2.532l-0.016-0.071c-0.090-0.331-0.347-0.585-0.673-0.668l-0.006-0.001c-0.671-0.169-2.473-0.611-3.484-0.859v-2.282c6.956-1.527 8.126-1.823 9.295-2.123l-5.81 1.262c0.33-0.086 0.586-0.339 0.675-0.661l0.002-0.007c0.247-0.91 0.58-1.705 1.002-2.443l-0.026 0.050c0.076-0.133 0.121-0.292 0.121-0.461 0-0.177-0.049-0.343-0.134-0.484l0.002 0.004c-4.462-7.868-5.033-8.81-5.606-9.751l3.879 6.866 1.617-1.616 2.804 1.682c0.299 0.178 0.67 0.177 0.967-0.003 0.769-0.474 1.657-0.864 2.599-1.122l0.072-0.017c0.329-0.090 0.582-0.346 0.666-0.671l0.001-0.006 0.858-3.483h2.281l0.858 3.483c0.083 0.331 0.339 0.59 0.668 0.677 0.974 0.264 1.827 0.632 2.612 1.101l-0.047-0.026c0.295 0.174 0.661 0.174 0.956 0l2.693-1.615 1.617 1.616-1.613 2.688c-0.084 0.138-0.133 0.304-0.133 0.482 0 0.176 0.049 0.341 0.133 0.482l-0.002-0.004c0.447 0.74 0.816 1.594 1.065 2.499l0.017 0.072c0.086 0.323 0.338 0.576 0.661 0.663 0.192 0.052 0.398 0.103 0.401 0.105l3.099 0.762v2.281z"></path>
</symbol>
<symbol id="icon-h2o" viewBox="0 0 32 32">
<path fill="#fff" style="fill: var(--color1, #fff)" d="M5.133 15.184c-1.456 1.819-2.259 4.129-2.259 6.504 0 5.686 4.627 10.312 10.312 10.312s10.313-4.626 10.313-10.312c0-2.374-0.803-4.685-2.259-6.504l-8.052-10.059-8.056 10.059zM21.626 21.688c0 4.653-3.785 8.437-8.437 8.437s-8.438-3.785-8.438-8.437c0-1.951 0.656-3.844 1.847-5.331l6.591-8.231 6.59 8.23c1.191 1.488 1.847 3.381 1.847 5.332zM29.125 7.563c0-1.076-0.354-2.086-1.022-2.922l-3.665-4.641-3.666 4.64c-0.637 0.787-1.022 1.799-1.022 2.902 0 0.007 0 0.015 0 0.022v-0.001c0 2.584 2.103 4.687 4.688 4.687s4.687-2.103 4.687-4.687zM21.625 7.563c0-0.646 0.212-1.253 0.612-1.754l2.2-2.784 2.2 2.784c0.401 0.5 0.612 1.107 0.612 1.754-0.002 1.552-1.26 2.81-2.813 2.812h-0c-1.552-0.002-2.81-1.26-2.812-2.812v-0z"></path>
</symbol>
<symbol id="icon-hose" viewBox="0 0 32 32">
<path fill="#ffcf7a" style="fill: var(--color2, #ffcf7a)" d="M31.062 0h-8c0 0 0 0 0 0-0.517 0-0.937 0.419-0.938 0.936v3.752c0 0.518 0.419 0.938 0.938 0.938h1.187v12.562c-0.007 3.747-2.523 6.904-5.958 7.88l-0.058 0.014c-0.667 0.189-1.432 0.298-2.223 0.298-1.322 0-2.572-0.304-3.686-0.845l0.050 0.022c-2.759-1.355-4.624-4.144-4.624-7.369 0-0.001 0-0.001 0-0.002v0-12.56h1.187c0.518 0 0.938-0.42 0.938-0.938v0-3.752c-0.001-0.517-0.42-0.936-0.938-0.936 0 0 0 0 0 0h-8c0 0 0 0 0 0-0.517 0-0.937 0.419-0.938 0.936v3.752c0 0.518 0.419 0.938 0.938 0.938h1.187v12.563c0 3.579 1.424 7.067 3.922 9.632 2.437 2.493 5.801 4.072 9.534 4.176l0.019 0c3.608 0.086 7.133-1.189 9.797-3.637 2.748-2.536 4.466-6.152 4.478-10.169v-12.567h1.187c0 0 0 0 0 0 0.517 0 0.937-0.419 0.938-0.936v-3.752c-0.001-0.517-0.42-0.936-0.938-0.936 0 0 0 0 0 0v0zM1.875 1.872h6.125v1.875h-6.125v-1.874zM5.875 5.622v1.875h-1.875v-1.874h1.875zM28.013 18.186c-0.070 1.216-0.24 2.416-0.6 3.59-0.761 2.41-2.197 4.425-4.085 5.884l-0.027 0.020c-3.274 2.501-7.822 3.128-11.659 1.643-3.318-1.324-5.863-3.981-7.008-7.291l-0.026-0.085c-0.385-1.122-0.608-2.415-0.608-3.76 0-0 0-0.001 0-0.002v0-8.811h1.875v8.813c0.022 3.716 2.036 6.957 5.027 8.71l0.048 0.026c3.373 1.934 7.792 1.744 10.955-0.539 1.691-1.24 2.966-2.956 3.638-4.949l0.021-0.071c1.251-3.818 0.166-7.989 0.594-11.984l1.869-0.002c-0.251 2.917 0.15 5.907-0.016 8.81zM28 7.498h-1.875v-1.874h1.875v1.875zM30.125 3.747h-6.125v-1.874h6.125v1.875z"></path>
</symbol>
<symbol id="icon-phone" viewBox="0 0 32 32">
<path d="M27.573 22.272c-1.934-1.653-3.897-2.656-5.806-1.004l-1.14 0.997c-0.836 0.725-2.386 4.108-8.382-2.789-5.995-6.889-2.427-7.963-1.593-8.681l1.147-0.999c1.9-1.653 1.184-3.737-0.187-5.881l-0.827-1.298c-1.376-2.142-2.875-3.547-4.779-1.895l-1.031 0.9c-0.841 0.613-3.193 2.606-3.764 6.393-0.686 4.542 1.479 9.746 6.444 15.452 4.956 5.712 9.812 8.58 14.409 8.53 3.822-0.041 6.13-2.091 6.852-2.837l1.031-0.9c1.9-1.652 0.72-3.332-1.214-4.988l-1.163-1.001z"></path>
</symbol>
<symbol id="icon-plane" viewBox="0 0 32 32">
<path fill="#fff" style="fill: var(--color1, #fff)" d="M32 3.808c0-0.015 0-0.033 0-0.050 0-1.037-0.422-1.976-1.104-2.654l-0-0c-0.678-0.682-1.616-1.104-2.653-1.104-0.018 0-0.036 0-0.053 0l0.003-0c-1.021 0.011-1.973 0.422-2.679 1.159l-5.602 5.837-14.656-4.852-4.326 4.331 12.247 7.541-5.040 5.252-3.955-0.65-4.18 4.178 6.816 2.387 2.387 6.816 4.179-4.179-0.65-3.955 5.252-5.040 7.541 12.247 4.329-4.327-4.85-14.656 5.836-5.601c0.709-0.676 1.152-1.626 1.159-2.679v-0.001zM29.541 5.134l-6.691 6.421 4.859 14.682-1.83 1.83-7.515-12.206-7.643 7.333 0.654 3.98-1.387 1.387-1.7-4.849-4.85-1.698 1.387-1.387 3.979 0.653 7.335-7.643-12.207-7.515 1.83-1.83 14.682 4.859 6.421-6.691c0.34-0.355 0.816-0.578 1.344-0.581h0.022c0.505 0 0.979 0.196 1.337 0.555 0.363 0.362 0.559 0.843 0.555 1.356-0.006 0.513-0.213 0.992-0.582 1.346z"></path>
</symbol>
<symbol id="icon-power-button" viewBox="0 0 32 32">
<path fill="#ffcf7a" style="fill: var(--color2, #ffcf7a)" d="M14.222 0h3.555v17.776h-3.554v-17.776z"></path>
<path fill="#ffcf7a" style="fill: var(--color2, #ffcf7a)" d="M24 2.141l-1.779 3.078c3.74 2.199 6.214 6.199 6.224 10.778v0.001c0 6.864-5.584 12.445-12.445 12.445-6.862 0-12.445-5.582-12.445-12.445 0-4.429 2.384-8.56 6.224-10.779l-1.781-3.078c-4.808 2.827-7.986 7.97-7.998 13.856v0.002c0 8.822 7.178 16 16 16s16-7.178 16-16c0-5.693-3.066-11.003-8-13.858z"></path>
</symbol>
</defs>
</svg>
